<mxfile host="Electron" agent="Mozilla/5.0 (X11; Linux x86_64) AppleWebKit/537.36 (KHTML, like Gecko) draw.io/26.2.2 Chrome/134.0.6998.178 Electron/35.1.2 Safari/537.36" version="26.2.2" pages="9">
  <diagram name="Ejercicio_5" id="sE7uTcJjLAaPEjO7LZBT">
    <mxGraphModel dx="1362" dy="843" grid="1" gridSize="10" guides="1" tooltips="1" connect="1" arrows="1" fold="1" page="1" pageScale="1" pageWidth="827" pageHeight="1169" math="0" shadow="0">
      <root>
        <mxCell id="0" />
        <mxCell id="1" parent="0" />
        <mxCell id="QUHNx_F7BNdxdduNFwbQ-3" value="" style="edgeStyle=orthogonalEdgeStyle;rounded=0;orthogonalLoop=1;jettySize=auto;html=1;" edge="1" parent="1" source="QUHNx_F7BNdxdduNFwbQ-1" target="QUHNx_F7BNdxdduNFwbQ-2">
          <mxGeometry relative="1" as="geometry" />
        </mxCell>
        <mxCell id="QUHNx_F7BNdxdduNFwbQ-1" value="Inicio." style="ellipse;whiteSpace=wrap;html=1;" vertex="1" parent="1">
          <mxGeometry x="340" y="20" width="120" height="80" as="geometry" />
        </mxCell>
        <mxCell id="QUHNx_F7BNdxdduNFwbQ-5" value="" style="edgeStyle=orthogonalEdgeStyle;rounded=0;orthogonalLoop=1;jettySize=auto;html=1;" edge="1" parent="1" source="QUHNx_F7BNdxdduNFwbQ-2" target="QUHNx_F7BNdxdduNFwbQ-4">
          <mxGeometry relative="1" as="geometry" />
        </mxCell>
        <mxCell id="QUHNx_F7BNdxdduNFwbQ-2" value="ingresa Valor de la cuenta" style="shape=parallelogram;perimeter=parallelogramPerimeter;whiteSpace=wrap;html=1;fixedSize=1;" vertex="1" parent="1">
          <mxGeometry x="335" y="140" width="130" height="60" as="geometry" />
        </mxCell>
        <mxCell id="QUHNx_F7BNdxdduNFwbQ-13" value="" style="edgeStyle=orthogonalEdgeStyle;rounded=0;orthogonalLoop=1;jettySize=auto;html=1;" edge="1" parent="1" source="QUHNx_F7BNdxdduNFwbQ-4" target="QUHNx_F7BNdxdduNFwbQ-12">
          <mxGeometry relative="1" as="geometry" />
        </mxCell>
        <mxCell id="QUHNx_F7BNdxdduNFwbQ-4" value="Ingresa el porcentaje de propina" style="shape=parallelogram;perimeter=parallelogramPerimeter;whiteSpace=wrap;html=1;fixedSize=1;" vertex="1" parent="1">
          <mxGeometry x="335" y="240" width="130" height="60" as="geometry" />
        </mxCell>
        <mxCell id="QUHNx_F7BNdxdduNFwbQ-15" value="" style="edgeStyle=orthogonalEdgeStyle;rounded=0;orthogonalLoop=1;jettySize=auto;html=1;" edge="1" parent="1" source="QUHNx_F7BNdxdduNFwbQ-12" target="QUHNx_F7BNdxdduNFwbQ-14">
          <mxGeometry relative="1" as="geometry" />
        </mxCell>
        <mxCell id="QUHNx_F7BNdxdduNFwbQ-12" value="Calculo&lt;div&gt;Valor de la cuenta * Valor de propina/100 + valor de la cuenta&lt;/div&gt;" style="whiteSpace=wrap;html=1;" vertex="1" parent="1">
          <mxGeometry x="340" y="340" width="120" height="60" as="geometry" />
        </mxCell>
        <mxCell id="QUHNx_F7BNdxdduNFwbQ-17" value="" style="edgeStyle=orthogonalEdgeStyle;rounded=0;orthogonalLoop=1;jettySize=auto;html=1;entryX=0.5;entryY=0;entryDx=0;entryDy=0;" edge="1" parent="1" source="QUHNx_F7BNdxdduNFwbQ-14" target="QUHNx_F7BNdxdduNFwbQ-18">
          <mxGeometry relative="1" as="geometry">
            <mxPoint x="400" y="570" as="targetPoint" />
          </mxGeometry>
        </mxCell>
        <mxCell id="QUHNx_F7BNdxdduNFwbQ-14" value="Cuenta total" style="shape=parallelogram;perimeter=parallelogramPerimeter;whiteSpace=wrap;html=1;fixedSize=1;" vertex="1" parent="1">
          <mxGeometry x="340" y="440" width="120" height="60" as="geometry" />
        </mxCell>
        <mxCell id="QUHNx_F7BNdxdduNFwbQ-18" value="Fin" style="ellipse;whiteSpace=wrap;html=1;" vertex="1" parent="1">
          <mxGeometry x="340" y="545" width="120" height="80" as="geometry" />
        </mxCell>
      </root>
    </mxGraphModel>
  </diagram>
  <diagram id="nbkSD953mZC3u36qdf1p" name="Ejercicio_6">
    <mxGraphModel dx="2189" dy="843" grid="1" gridSize="10" guides="1" tooltips="1" connect="1" arrows="1" fold="1" page="1" pageScale="1" pageWidth="827" pageHeight="1169" math="0" shadow="0">
      <root>
        <mxCell id="0" />
        <mxCell id="1" parent="0" />
        <mxCell id="iOks8K--WRCaeBsgmsJH-3" value="" style="edgeStyle=orthogonalEdgeStyle;rounded=0;orthogonalLoop=1;jettySize=auto;html=1;" edge="1" parent="1" source="iOks8K--WRCaeBsgmsJH-1" target="iOks8K--WRCaeBsgmsJH-2">
          <mxGeometry relative="1" as="geometry" />
        </mxCell>
        <mxCell id="iOks8K--WRCaeBsgmsJH-1" value="Adivinina un número del 1-20" style="ellipse;whiteSpace=wrap;html=1;" vertex="1" parent="1">
          <mxGeometry x="354" y="50" width="120" height="80" as="geometry" />
        </mxCell>
        <mxCell id="iOks8K--WRCaeBsgmsJH-5" value="" style="edgeStyle=orthogonalEdgeStyle;rounded=0;orthogonalLoop=1;jettySize=auto;html=1;" edge="1" parent="1" source="iOks8K--WRCaeBsgmsJH-2" target="iOks8K--WRCaeBsgmsJH-4">
          <mxGeometry relative="1" as="geometry" />
        </mxCell>
        <mxCell id="iOks8K--WRCaeBsgmsJH-2" value="&quot;Ingrese aquí&quot;" style="shape=parallelogram;perimeter=parallelogramPerimeter;whiteSpace=wrap;html=1;fixedSize=1;" vertex="1" parent="1">
          <mxGeometry x="337" y="170" width="154" height="60" as="geometry" />
        </mxCell>
        <mxCell id="iOks8K--WRCaeBsgmsJH-7" value="" style="edgeStyle=orthogonalEdgeStyle;rounded=0;orthogonalLoop=1;jettySize=auto;html=1;" edge="1" parent="1" source="iOks8K--WRCaeBsgmsJH-4" target="iOks8K--WRCaeBsgmsJH-6">
          <mxGeometry relative="1" as="geometry" />
        </mxCell>
        <mxCell id="iOks8K--WRCaeBsgmsJH-27" style="edgeStyle=orthogonalEdgeStyle;rounded=0;orthogonalLoop=1;jettySize=auto;html=1;exitX=0;exitY=0.5;exitDx=0;exitDy=0;entryX=1;entryY=0.5;entryDx=0;entryDy=0;" edge="1" parent="1" source="iOks8K--WRCaeBsgmsJH-4" target="iOks8K--WRCaeBsgmsJH-12">
          <mxGeometry relative="1" as="geometry" />
        </mxCell>
        <mxCell id="iOks8K--WRCaeBsgmsJH-4" value="¿El intento es igual al número?" style="rhombus;whiteSpace=wrap;html=1;" vertex="1" parent="1">
          <mxGeometry x="362" y="280" width="104" height="110" as="geometry" />
        </mxCell>
        <mxCell id="iOks8K--WRCaeBsgmsJH-9" style="edgeStyle=orthogonalEdgeStyle;rounded=0;orthogonalLoop=1;jettySize=auto;html=1;exitX=0.5;exitY=1;exitDx=0;exitDy=0;" edge="1" parent="1" source="iOks8K--WRCaeBsgmsJH-6" target="iOks8K--WRCaeBsgmsJH-8">
          <mxGeometry relative="1" as="geometry" />
        </mxCell>
        <mxCell id="iOks8K--WRCaeBsgmsJH-6" value="Adivinaste el numero" style="shape=parallelogram;perimeter=parallelogramPerimeter;whiteSpace=wrap;html=1;fixedSize=1;" vertex="1" parent="1">
          <mxGeometry x="341" y="430" width="146" height="60" as="geometry" />
        </mxCell>
        <mxCell id="iOks8K--WRCaeBsgmsJH-8" value="Fin" style="ellipse;whiteSpace=wrap;html=1;" vertex="1" parent="1">
          <mxGeometry x="354" y="540" width="120" height="80" as="geometry" />
        </mxCell>
        <mxCell id="iOks8K--WRCaeBsgmsJH-14" value="" style="edgeStyle=orthogonalEdgeStyle;rounded=0;orthogonalLoop=1;jettySize=auto;html=1;" edge="1" parent="1" source="iOks8K--WRCaeBsgmsJH-12" target="iOks8K--WRCaeBsgmsJH-13">
          <mxGeometry relative="1" as="geometry" />
        </mxCell>
        <mxCell id="iOks8K--WRCaeBsgmsJH-12" value="Calcular si el intento es mayor o menor al número" style="rounded=0;whiteSpace=wrap;html=1;" vertex="1" parent="1">
          <mxGeometry x="190" y="305" width="120" height="60" as="geometry" />
        </mxCell>
        <mxCell id="iOks8K--WRCaeBsgmsJH-16" value="" style="edgeStyle=orthogonalEdgeStyle;rounded=0;orthogonalLoop=1;jettySize=auto;html=1;" edge="1" parent="1" source="iOks8K--WRCaeBsgmsJH-13" target="iOks8K--WRCaeBsgmsJH-15">
          <mxGeometry relative="1" as="geometry" />
        </mxCell>
        <mxCell id="iOks8K--WRCaeBsgmsJH-19" value="" style="edgeStyle=orthogonalEdgeStyle;rounded=0;orthogonalLoop=1;jettySize=auto;html=1;" edge="1" parent="1" source="iOks8K--WRCaeBsgmsJH-13" target="iOks8K--WRCaeBsgmsJH-18">
          <mxGeometry relative="1" as="geometry" />
        </mxCell>
        <mxCell id="iOks8K--WRCaeBsgmsJH-13" value="Lo es?" style="rhombus;whiteSpace=wrap;html=1;rounded=0;" vertex="1" parent="1">
          <mxGeometry x="50" y="295" width="80" height="80" as="geometry" />
        </mxCell>
        <mxCell id="iOks8K--WRCaeBsgmsJH-17" style="edgeStyle=orthogonalEdgeStyle;rounded=0;orthogonalLoop=1;jettySize=auto;html=1;exitX=1;exitY=0.5;exitDx=0;exitDy=0;entryX=0;entryY=0.5;entryDx=0;entryDy=0;" edge="1" parent="1" source="iOks8K--WRCaeBsgmsJH-15" target="iOks8K--WRCaeBsgmsJH-2">
          <mxGeometry relative="1" as="geometry" />
        </mxCell>
        <mxCell id="iOks8K--WRCaeBsgmsJH-15" value="Demasiado alto" style="shape=parallelogram;perimeter=parallelogramPerimeter;whiteSpace=wrap;html=1;fixedSize=1;rounded=0;" vertex="1" parent="1">
          <mxGeometry x="30" y="170" width="120" height="60" as="geometry" />
        </mxCell>
        <mxCell id="iOks8K--WRCaeBsgmsJH-21" style="edgeStyle=orthogonalEdgeStyle;rounded=0;orthogonalLoop=1;jettySize=auto;html=1;exitX=0.5;exitY=0;exitDx=0;exitDy=0;entryX=0;entryY=0.5;entryDx=0;entryDy=0;" edge="1" parent="1" source="iOks8K--WRCaeBsgmsJH-18" target="iOks8K--WRCaeBsgmsJH-2">
          <mxGeometry relative="1" as="geometry">
            <Array as="points">
              <mxPoint x="20" y="120" />
              <mxPoint x="356" y="120" />
            </Array>
          </mxGeometry>
        </mxCell>
        <mxCell id="iOks8K--WRCaeBsgmsJH-18" value="Demasiado bajo" style="shape=parallelogram;perimeter=parallelogramPerimeter;whiteSpace=wrap;html=1;fixedSize=1;rounded=0;" vertex="1" parent="1">
          <mxGeometry x="-120" y="305" width="120" height="60" as="geometry" />
        </mxCell>
        <mxCell id="iOks8K--WRCaeBsgmsJH-22" value="Si." style="text;html=1;align=center;verticalAlign=middle;whiteSpace=wrap;rounded=0;" vertex="1" parent="1">
          <mxGeometry x="402" y="390" width="60" height="30" as="geometry" />
        </mxCell>
        <mxCell id="iOks8K--WRCaeBsgmsJH-23" value="Si." style="text;html=1;align=center;verticalAlign=middle;whiteSpace=wrap;rounded=0;" vertex="1" parent="1">
          <mxGeometry x="80" y="250" width="60" height="30" as="geometry" />
        </mxCell>
        <mxCell id="iOks8K--WRCaeBsgmsJH-25" value="No." style="text;html=1;align=center;verticalAlign=middle;whiteSpace=wrap;rounded=0;" vertex="1" parent="1">
          <mxGeometry y="310" width="60" height="30" as="geometry" />
        </mxCell>
        <mxCell id="iOks8K--WRCaeBsgmsJH-26" value="No." style="text;html=1;align=center;verticalAlign=middle;whiteSpace=wrap;rounded=0;" vertex="1" parent="1">
          <mxGeometry x="310" y="310" width="60" height="30" as="geometry" />
        </mxCell>
      </root>
    </mxGraphModel>
  </diagram>
  <diagram id="ssBcbQuamWKGau9DIe3P" name="Ejercicio_7">
    <mxGraphModel dx="1362" dy="843" grid="1" gridSize="10" guides="1" tooltips="1" connect="1" arrows="1" fold="1" page="1" pageScale="1" pageWidth="827" pageHeight="1169" math="0" shadow="0">
      <root>
        <mxCell id="0" />
        <mxCell id="1" parent="0" />
      </root>
    </mxGraphModel>
  </diagram>
  <diagram id="iGM1Jne45WDgffeLAtDe" name="Ejercicio_8">
    <mxGraphModel dx="1362" dy="843" grid="1" gridSize="10" guides="1" tooltips="1" connect="1" arrows="1" fold="1" page="1" pageScale="1" pageWidth="827" pageHeight="1169" math="0" shadow="0">
      <root>
        <mxCell id="0" />
        <mxCell id="1" parent="0" />
      </root>
    </mxGraphModel>
  </diagram>
  <diagram id="usmzxx6lTOft9o2TRAB2" name="Ejercicio_9">
    <mxGraphModel dx="1362" dy="843" grid="1" gridSize="10" guides="1" tooltips="1" connect="1" arrows="1" fold="1" page="1" pageScale="1" pageWidth="827" pageHeight="1169" math="0" shadow="0">
      <root>
        <mxCell id="0" />
        <mxCell id="1" parent="0" />
      </root>
    </mxGraphModel>
  </diagram>
  <diagram id="edtABpf5HcgEVzWK5pd8" name="Ejercicio_10">
    <mxGraphModel dx="1362" dy="843" grid="1" gridSize="10" guides="1" tooltips="1" connect="1" arrows="1" fold="1" page="1" pageScale="1" pageWidth="827" pageHeight="1169" math="0" shadow="0">
      <root>
        <mxCell id="0" />
        <mxCell id="1" parent="0" />
      </root>
    </mxGraphModel>
  </diagram>
  <diagram id="gY8HgGTtJCjit4q1_v75" name="Ejercicio_2">
    <mxGraphModel dx="1362" dy="843" grid="1" gridSize="10" guides="1" tooltips="1" connect="1" arrows="1" fold="1" page="1" pageScale="1" pageWidth="827" pageHeight="1169" math="0" shadow="0">
      <root>
        <mxCell id="0" />
        <mxCell id="1" parent="0" />
        <mxCell id="y5S2P3idCyu0nLXC9nIk-1" value="" style="edgeStyle=orthogonalEdgeStyle;rounded=0;orthogonalLoop=1;jettySize=auto;html=1;" edge="1" parent="1" source="y5S2P3idCyu0nLXC9nIk-2" target="y5S2P3idCyu0nLXC9nIk-4">
          <mxGeometry relative="1" as="geometry" />
        </mxCell>
        <mxCell id="y5S2P3idCyu0nLXC9nIk-2" value="Inicio." style="ellipse;whiteSpace=wrap;html=1;" vertex="1" parent="1">
          <mxGeometry x="444" y="10" width="120" height="80" as="geometry" />
        </mxCell>
        <mxCell id="y5S2P3idCyu0nLXC9nIk-3" style="edgeStyle=orthogonalEdgeStyle;rounded=0;orthogonalLoop=1;jettySize=auto;html=1;exitX=0.5;exitY=1;exitDx=0;exitDy=0;entryX=0.5;entryY=0;entryDx=0;entryDy=0;" edge="1" parent="1" source="y5S2P3idCyu0nLXC9nIk-4" target="y5S2P3idCyu0nLXC9nIk-7">
          <mxGeometry relative="1" as="geometry" />
        </mxCell>
        <mxCell id="y5S2P3idCyu0nLXC9nIk-4" value="Ingresa un número." style="shape=parallelogram;perimeter=parallelogramPerimeter;whiteSpace=wrap;html=1;fixedSize=1;" vertex="1" parent="1">
          <mxGeometry x="434" y="180" width="140" height="60" as="geometry" />
        </mxCell>
        <mxCell id="y5S2P3idCyu0nLXC9nIk-5" style="edgeStyle=orthogonalEdgeStyle;rounded=0;orthogonalLoop=1;jettySize=auto;html=1;exitX=1;exitY=0.5;exitDx=0;exitDy=0;entryX=0.5;entryY=0;entryDx=0;entryDy=0;" edge="1" parent="1" source="y5S2P3idCyu0nLXC9nIk-7" target="y5S2P3idCyu0nLXC9nIk-9">
          <mxGeometry relative="1" as="geometry">
            <mxPoint x="704" y="330" as="targetPoint" />
          </mxGeometry>
        </mxCell>
        <mxCell id="y5S2P3idCyu0nLXC9nIk-6" value="" style="edgeStyle=orthogonalEdgeStyle;rounded=0;orthogonalLoop=1;jettySize=auto;html=1;" edge="1" parent="1" source="y5S2P3idCyu0nLXC9nIk-7" target="y5S2P3idCyu0nLXC9nIk-12">
          <mxGeometry relative="1" as="geometry" />
        </mxCell>
        <mxCell id="y5S2P3idCyu0nLXC9nIk-7" value="¿El número es 0?" style="rhombus;whiteSpace=wrap;html=1;" vertex="1" parent="1">
          <mxGeometry x="449" y="280" width="110" height="100" as="geometry" />
        </mxCell>
        <mxCell id="y5S2P3idCyu0nLXC9nIk-8" style="edgeStyle=orthogonalEdgeStyle;rounded=0;orthogonalLoop=1;jettySize=auto;html=1;exitX=0.5;exitY=1;exitDx=0;exitDy=0;entryX=1;entryY=0.5;entryDx=0;entryDy=0;" edge="1" parent="1" source="y5S2P3idCyu0nLXC9nIk-9" target="y5S2P3idCyu0nLXC9nIk-17">
          <mxGeometry relative="1" as="geometry" />
        </mxCell>
        <mxCell id="y5S2P3idCyu0nLXC9nIk-9" value="Tu número es 0" style="shape=parallelogram;perimeter=parallelogramPerimeter;whiteSpace=wrap;html=1;fixedSize=1;" vertex="1" parent="1">
          <mxGeometry x="674" y="380" width="120" height="60" as="geometry" />
        </mxCell>
        <mxCell id="y5S2P3idCyu0nLXC9nIk-10" value="" style="edgeStyle=orthogonalEdgeStyle;rounded=0;orthogonalLoop=1;jettySize=auto;html=1;" edge="1" parent="1" source="y5S2P3idCyu0nLXC9nIk-12" target="y5S2P3idCyu0nLXC9nIk-14">
          <mxGeometry relative="1" as="geometry" />
        </mxCell>
        <mxCell id="y5S2P3idCyu0nLXC9nIk-11" value="" style="edgeStyle=orthogonalEdgeStyle;rounded=0;orthogonalLoop=1;jettySize=auto;html=1;" edge="1" parent="1" source="y5S2P3idCyu0nLXC9nIk-12" target="y5S2P3idCyu0nLXC9nIk-16">
          <mxGeometry relative="1" as="geometry" />
        </mxCell>
        <mxCell id="y5S2P3idCyu0nLXC9nIk-12" value="¿Tu numero es mayor que 0?" style="rhombus;whiteSpace=wrap;html=1;" vertex="1" parent="1">
          <mxGeometry x="264" y="280" width="110" height="100" as="geometry" />
        </mxCell>
        <mxCell id="y5S2P3idCyu0nLXC9nIk-13" style="edgeStyle=orthogonalEdgeStyle;rounded=0;orthogonalLoop=1;jettySize=auto;html=1;exitX=0.5;exitY=1;exitDx=0;exitDy=0;entryX=0.5;entryY=1;entryDx=0;entryDy=0;" edge="1" parent="1" source="y5S2P3idCyu0nLXC9nIk-14" target="y5S2P3idCyu0nLXC9nIk-17">
          <mxGeometry relative="1" as="geometry" />
        </mxCell>
        <mxCell id="y5S2P3idCyu0nLXC9nIk-14" value="Tu número es positivo" style="shape=parallelogram;perimeter=parallelogramPerimeter;whiteSpace=wrap;html=1;fixedSize=1;" vertex="1" parent="1">
          <mxGeometry x="34" y="300" width="155" height="60" as="geometry" />
        </mxCell>
        <mxCell id="y5S2P3idCyu0nLXC9nIk-15" style="edgeStyle=orthogonalEdgeStyle;rounded=0;orthogonalLoop=1;jettySize=auto;html=1;exitX=0.5;exitY=1;exitDx=0;exitDy=0;entryX=0;entryY=0.5;entryDx=0;entryDy=0;" edge="1" parent="1" source="y5S2P3idCyu0nLXC9nIk-16" target="y5S2P3idCyu0nLXC9nIk-17">
          <mxGeometry relative="1" as="geometry" />
        </mxCell>
        <mxCell id="y5S2P3idCyu0nLXC9nIk-16" value="Tu número es negativo" style="shape=parallelogram;perimeter=parallelogramPerimeter;whiteSpace=wrap;html=1;fixedSize=1;" vertex="1" parent="1">
          <mxGeometry x="259" y="480" width="120" height="60" as="geometry" />
        </mxCell>
        <mxCell id="y5S2P3idCyu0nLXC9nIk-17" value="Fin" style="ellipse;whiteSpace=wrap;html=1;" vertex="1" parent="1">
          <mxGeometry x="434" y="620" width="120" height="80" as="geometry" />
        </mxCell>
        <mxCell id="y5S2P3idCyu0nLXC9nIk-18" value="Si" style="text;html=1;align=center;verticalAlign=middle;whiteSpace=wrap;rounded=0;" vertex="1" parent="1">
          <mxGeometry x="624" y="310" width="60" height="30" as="geometry" />
        </mxCell>
        <mxCell id="y5S2P3idCyu0nLXC9nIk-19" value="Si" style="text;html=1;align=center;verticalAlign=middle;whiteSpace=wrap;rounded=0;" vertex="1" parent="1">
          <mxGeometry x="199" y="310" width="60" height="30" as="geometry" />
        </mxCell>
        <mxCell id="y5S2P3idCyu0nLXC9nIk-20" value="No" style="text;html=1;align=center;verticalAlign=middle;whiteSpace=wrap;rounded=0;" vertex="1" parent="1">
          <mxGeometry x="389" y="310" width="60" height="30" as="geometry" />
        </mxCell>
        <mxCell id="y5S2P3idCyu0nLXC9nIk-21" value="No" style="text;html=1;align=center;verticalAlign=middle;whiteSpace=wrap;rounded=0;" vertex="1" parent="1">
          <mxGeometry x="274" y="420" width="60" height="30" as="geometry" />
        </mxCell>
      </root>
    </mxGraphModel>
  </diagram>
  <diagram id="OYf4ip7PtZ_QNpYhShzi" name="Ejercicio_3">
    <mxGraphModel dx="1362" dy="843" grid="1" gridSize="10" guides="1" tooltips="1" connect="1" arrows="1" fold="1" page="1" pageScale="1" pageWidth="827" pageHeight="1169" math="0" shadow="0">
      <root>
        <mxCell id="0" />
        <mxCell id="1" parent="0" />
        <mxCell id="A_Ty6TMgPuISY5t7zgch-1" value="" style="edgeStyle=orthogonalEdgeStyle;rounded=0;orthogonalLoop=1;jettySize=auto;html=1;" edge="1" parent="1" source="A_Ty6TMgPuISY5t7zgch-2" target="A_Ty6TMgPuISY5t7zgch-4">
          <mxGeometry relative="1" as="geometry" />
        </mxCell>
        <mxCell id="A_Ty6TMgPuISY5t7zgch-2" value="Inicio." style="ellipse;whiteSpace=wrap;html=1;" vertex="1" parent="1">
          <mxGeometry x="354" y="20" width="120" height="80" as="geometry" />
        </mxCell>
        <mxCell id="A_Ty6TMgPuISY5t7zgch-3" value="" style="edgeStyle=orthogonalEdgeStyle;rounded=0;orthogonalLoop=1;jettySize=auto;html=1;" edge="1" parent="1" source="A_Ty6TMgPuISY5t7zgch-4" target="A_Ty6TMgPuISY5t7zgch-7">
          <mxGeometry relative="1" as="geometry" />
        </mxCell>
        <mxCell id="A_Ty6TMgPuISY5t7zgch-4" value="Ingresa un número" style="shape=parallelogram;perimeter=parallelogramPerimeter;whiteSpace=wrap;html=1;fixedSize=1;" vertex="1" parent="1">
          <mxGeometry x="346" y="190" width="136" height="60" as="geometry" />
        </mxCell>
        <mxCell id="A_Ty6TMgPuISY5t7zgch-5" style="edgeStyle=orthogonalEdgeStyle;rounded=0;orthogonalLoop=1;jettySize=auto;html=1;exitX=0;exitY=0.5;exitDx=0;exitDy=0;" edge="1" parent="1" source="A_Ty6TMgPuISY5t7zgch-7" target="A_Ty6TMgPuISY5t7zgch-9">
          <mxGeometry relative="1" as="geometry" />
        </mxCell>
        <mxCell id="A_Ty6TMgPuISY5t7zgch-6" value="" style="edgeStyle=orthogonalEdgeStyle;rounded=0;orthogonalLoop=1;jettySize=auto;html=1;" edge="1" parent="1" source="A_Ty6TMgPuISY5t7zgch-7" target="A_Ty6TMgPuISY5t7zgch-11">
          <mxGeometry relative="1" as="geometry" />
        </mxCell>
        <mxCell id="A_Ty6TMgPuISY5t7zgch-7" value="¿El número divido entre 2 es 0?" style="rhombus;whiteSpace=wrap;html=1;" vertex="1" parent="1">
          <mxGeometry x="366" y="300" width="96" height="100" as="geometry" />
        </mxCell>
        <mxCell id="A_Ty6TMgPuISY5t7zgch-8" style="edgeStyle=orthogonalEdgeStyle;rounded=0;orthogonalLoop=1;jettySize=auto;html=1;exitX=0.5;exitY=1;exitDx=0;exitDy=0;entryX=0;entryY=0.5;entryDx=0;entryDy=0;" edge="1" parent="1" source="A_Ty6TMgPuISY5t7zgch-9" target="A_Ty6TMgPuISY5t7zgch-14">
          <mxGeometry relative="1" as="geometry" />
        </mxCell>
        <mxCell id="A_Ty6TMgPuISY5t7zgch-9" value="El número es negativo" style="shape=parallelogram;perimeter=parallelogramPerimeter;whiteSpace=wrap;html=1;fixedSize=1;" vertex="1" parent="1">
          <mxGeometry x="170" y="320" width="120" height="60" as="geometry" />
        </mxCell>
        <mxCell id="A_Ty6TMgPuISY5t7zgch-10" style="edgeStyle=orthogonalEdgeStyle;rounded=0;orthogonalLoop=1;jettySize=auto;html=1;exitX=0.5;exitY=1;exitDx=0;exitDy=0;entryX=1;entryY=0.5;entryDx=0;entryDy=0;" edge="1" parent="1" source="A_Ty6TMgPuISY5t7zgch-11" target="A_Ty6TMgPuISY5t7zgch-14">
          <mxGeometry relative="1" as="geometry" />
        </mxCell>
        <mxCell id="A_Ty6TMgPuISY5t7zgch-11" value="El número es positivo" style="shape=parallelogram;perimeter=parallelogramPerimeter;whiteSpace=wrap;html=1;fixedSize=1;" vertex="1" parent="1">
          <mxGeometry x="530" y="320" width="150" height="60" as="geometry" />
        </mxCell>
        <mxCell id="A_Ty6TMgPuISY5t7zgch-12" value="Si" style="text;html=1;align=center;verticalAlign=middle;whiteSpace=wrap;rounded=0;" vertex="1" parent="1">
          <mxGeometry x="462" y="330" width="60" height="30" as="geometry" />
        </mxCell>
        <mxCell id="A_Ty6TMgPuISY5t7zgch-13" value="No" style="text;html=1;align=center;verticalAlign=middle;whiteSpace=wrap;rounded=0;" vertex="1" parent="1">
          <mxGeometry x="294" y="330" width="60" height="30" as="geometry" />
        </mxCell>
        <mxCell id="A_Ty6TMgPuISY5t7zgch-14" value="Fin." style="ellipse;whiteSpace=wrap;html=1;" vertex="1" parent="1">
          <mxGeometry x="354" y="480" width="120" height="80" as="geometry" />
        </mxCell>
      </root>
    </mxGraphModel>
  </diagram>
  <diagram id="jKSZr4hDwjrVpiiOIUxg" name="Ejercicio_4">
    <mxGraphModel dx="1362" dy="2012" grid="1" gridSize="10" guides="1" tooltips="1" connect="1" arrows="1" fold="1" page="1" pageScale="1" pageWidth="827" pageHeight="1169" math="0" shadow="0">
      <root>
        <mxCell id="0" />
        <mxCell id="1" parent="0" />
        <mxCell id="5-MRbe0JsKc48UbN7Kpn-1" value="" style="edgeStyle=orthogonalEdgeStyle;rounded=0;orthogonalLoop=1;jettySize=auto;html=1;" edge="1" parent="1" source="5-MRbe0JsKc48UbN7Kpn-2" target="5-MRbe0JsKc48UbN7Kpn-4">
          <mxGeometry relative="1" as="geometry" />
        </mxCell>
        <mxCell id="5-MRbe0JsKc48UbN7Kpn-2" value="Inicio." style="ellipse;whiteSpace=wrap;html=1;" vertex="1" parent="1">
          <mxGeometry x="340" y="-290" width="120" height="80" as="geometry" />
        </mxCell>
        <mxCell id="5-MRbe0JsKc48UbN7Kpn-3" value="" style="edgeStyle=orthogonalEdgeStyle;rounded=0;orthogonalLoop=1;jettySize=auto;html=1;" edge="1" parent="1" source="5-MRbe0JsKc48UbN7Kpn-4" target="5-MRbe0JsKc48UbN7Kpn-7">
          <mxGeometry relative="1" as="geometry" />
        </mxCell>
        <mxCell id="5-MRbe0JsKc48UbN7Kpn-4" value="Ingrese contraseña" style="shape=parallelogram;perimeter=parallelogramPerimeter;whiteSpace=wrap;html=1;fixedSize=1;" vertex="1" parent="1">
          <mxGeometry x="330" y="-120" width="140" height="60" as="geometry" />
        </mxCell>
        <mxCell id="5-MRbe0JsKc48UbN7Kpn-5" value="" style="edgeStyle=orthogonalEdgeStyle;rounded=0;orthogonalLoop=1;jettySize=auto;html=1;" edge="1" parent="1" source="5-MRbe0JsKc48UbN7Kpn-7" target="5-MRbe0JsKc48UbN7Kpn-9">
          <mxGeometry relative="1" as="geometry" />
        </mxCell>
        <mxCell id="5-MRbe0JsKc48UbN7Kpn-6" value="" style="edgeStyle=orthogonalEdgeStyle;rounded=0;orthogonalLoop=1;jettySize=auto;html=1;" edge="1" parent="1" source="5-MRbe0JsKc48UbN7Kpn-7" target="5-MRbe0JsKc48UbN7Kpn-11">
          <mxGeometry relative="1" as="geometry" />
        </mxCell>
        <mxCell id="5-MRbe0JsKc48UbN7Kpn-7" value="¿La contraseña es correcta?" style="rhombus;whiteSpace=wrap;html=1;" vertex="1" parent="1">
          <mxGeometry x="350" y="-10" width="100" height="100" as="geometry" />
        </mxCell>
        <mxCell id="5-MRbe0JsKc48UbN7Kpn-8" style="edgeStyle=orthogonalEdgeStyle;rounded=0;orthogonalLoop=1;jettySize=auto;html=1;exitX=0.5;exitY=1;exitDx=0;exitDy=0;entryX=0;entryY=0.5;entryDx=0;entryDy=0;" edge="1" parent="1" source="5-MRbe0JsKc48UbN7Kpn-9" target="5-MRbe0JsKc48UbN7Kpn-14">
          <mxGeometry relative="1" as="geometry" />
        </mxCell>
        <mxCell id="5-MRbe0JsKc48UbN7Kpn-9" value="Contraseña incorrecta" style="shape=parallelogram;perimeter=parallelogramPerimeter;whiteSpace=wrap;html=1;fixedSize=1;" vertex="1" parent="1">
          <mxGeometry x="160" y="10" width="120" height="60" as="geometry" />
        </mxCell>
        <mxCell id="5-MRbe0JsKc48UbN7Kpn-10" style="edgeStyle=orthogonalEdgeStyle;rounded=0;orthogonalLoop=1;jettySize=auto;html=1;exitX=0.5;exitY=1;exitDx=0;exitDy=0;entryX=1;entryY=0.5;entryDx=0;entryDy=0;" edge="1" parent="1" source="5-MRbe0JsKc48UbN7Kpn-11" target="5-MRbe0JsKc48UbN7Kpn-14">
          <mxGeometry relative="1" as="geometry" />
        </mxCell>
        <mxCell id="5-MRbe0JsKc48UbN7Kpn-11" value="Acceso concedido." style="shape=parallelogram;perimeter=parallelogramPerimeter;whiteSpace=wrap;html=1;fixedSize=1;" vertex="1" parent="1">
          <mxGeometry x="520" y="10" width="130" height="60" as="geometry" />
        </mxCell>
        <mxCell id="5-MRbe0JsKc48UbN7Kpn-12" value="Si" style="text;html=1;align=center;verticalAlign=middle;whiteSpace=wrap;rounded=0;" vertex="1" parent="1">
          <mxGeometry x="460" y="20" width="60" height="30" as="geometry" />
        </mxCell>
        <mxCell id="5-MRbe0JsKc48UbN7Kpn-13" value="No" style="text;html=1;align=center;verticalAlign=middle;whiteSpace=wrap;rounded=0;" vertex="1" parent="1">
          <mxGeometry x="290" y="20" width="60" height="30" as="geometry" />
        </mxCell>
        <mxCell id="5-MRbe0JsKc48UbN7Kpn-14" value="Fin." style="ellipse;whiteSpace=wrap;html=1;" vertex="1" parent="1">
          <mxGeometry x="354" y="170" width="120" height="80" as="geometry" />
        </mxCell>
      </root>
    </mxGraphModel>
  </diagram>
</mxfile>
